<?xml version="1.0" encoding="UTF-8" standalone="no"?><!-- Generator: Gravit.io --><svg xmlns="http://www.w3.org/2000/svg" xmlns:xlink="http://www.w3.org/1999/xlink" style="isolation:isolate" viewBox="0 0 450 130" width="450pt" height="130pt"><defs><clipPath id="_clipPath_WTF4AUCESHJs365a4WpUWxXayaKQIID6"><rect width="450" height="130"/></clipPath></defs><g clip-path="url(#_clipPath_WTF4AUCESHJs365a4WpUWxXayaKQIID6)"><rect width="450" height="130" style="fill:rgb(0,0,0)" fill-opacity="0"/><g><g><path d=" M 80.759 7.011 L 28.803 7.011 C 14.977 7.011 8 13.722 8 27.015 L 8 98.161 C 8 99.903 8.936 100.976 10.952 100.976 L 26.658 100.976 C 28.537 100.976 29.747 99.903 29.747 98.161 L 29.747 95.459 C 29.747 88.87 32.524 85.278 39.426 84.586 L 80.759 84.586 C 95.924 84.586 102.772 78.012 102.772 63.646 L 102.772 27.951 C 102.772 13.585 95.924 7.011 80.759 7.011 Z  M 81.048 57.604 C 81.048 65.396 79.282 67.001 70.015 67.001 L 48.001 67.001 C 38.741 67.001 32.829 70.09 29.739 76.132 L 29.739 32.25 C 29.739 26.208 31.215 24.595 38.596 24.595 L 70.015 24.595 C 79.282 24.595 81.048 26.208 81.048 33.993 L 81.048 57.604 Z " fill="rgb(130,87,229)"/><path d=" M 152.574 46.342 C 140.628 46.342 135.522 52.384 135.522 62.588 L 135.522 98.427 C 135.522 100.04 134.715 100.976 132.836 100.976 L 118.607 100.976 C 116.727 100.976 115.791 100.04 115.791 98.427 L 115.791 32.92 C 115.791 31.307 116.727 30.363 118.607 30.363 L 130.553 30.363 C 132.303 30.363 133.239 31.307 133.239 32.92 L 133.239 43.489 C 135.522 34.769 142.104 30.333 153.784 30.333 L 158.616 30.333 C 160.358 30.333 161.294 31.276 161.294 32.889 L 161.294 43.793 C 161.294 45.536 160.358 46.342 158.616 46.342 L 152.574 46.342 Z " fill="rgb(130,87,229)"/><path d=" M 245.193 81.778 C 245.193 95.071 239.288 100.976 225.196 100.976 L 190.293 100.976 C 176.33 100.976 170.288 95.071 170.288 81.778 L 170.288 49.576 C 170.288 36.291 176.33 30.378 190.293 30.378 L 225.196 30.378 C 239.288 30.378 245.193 36.291 245.193 49.576 L 245.193 81.778 Z  M 225.462 54.667 C 225.462 47.681 224.123 46.342 215.799 46.342 L 199.819 46.342 C 191.366 46.342 190.019 47.681 190.019 54.667 L 190.019 76.68 C 190.019 83.658 191.366 85.004 199.819 85.004 L 215.799 85.004 C 224.123 85.004 225.462 83.658 225.462 76.68 L 225.462 54.667 Z " fill="rgb(130,87,229)"/><path d=" M 265.06 46.342 L 258.341 46.342 C 256.591 46.342 255.655 45.536 255.655 43.793 L 255.655 32.92 C 255.655 31.307 256.591 30.363 258.341 30.363 L 265.053 30.363 L 265.053 21.643 C 265.06 8.35 272.038 1.638 285.864 1.638 L 302.376 1.638 C 304.255 1.638 305.062 2.582 305.062 4.188 L 305.062 15.061 C 305.062 16.811 304.255 17.61 302.376 17.61 L 293.655 17.61 C 286.267 17.61 284.791 19.223 284.791 25.265 L 284.791 30.363 L 302.376 30.363 C 304.255 30.363 305.062 31.307 305.062 32.92 L 305.062 43.793 C 305.062 45.536 304.255 46.342 302.376 46.342 L 284.791 46.342 L 284.791 98.427 C 284.791 100.04 283.855 100.976 281.975 100.976 L 267.746 100.976 C 265.867 100.976 265.06 100.04 265.06 98.427 L 265.06 46.342 Z " fill="rgb(130,87,229)"/><path d=" M 319.831 46.342 L 313.127 46.342 C 311.385 46.342 310.449 45.536 310.449 43.793 L 310.449 32.92 C 310.449 31.307 311.385 30.363 313.127 30.363 L 319.846 30.363 L 319.846 21.643 C 319.831 8.35 326.824 1.638 340.634 1.638 L 357.146 1.638 C 359.026 1.638 359.832 2.582 359.832 4.188 L 359.832 15.061 C 359.832 16.811 359.026 17.61 357.146 17.61 L 348.419 17.61 C 341.038 17.61 339.562 19.223 339.562 25.265 L 339.562 30.363 L 357.146 30.363 C 359.026 30.363 359.832 31.307 359.832 32.92 L 359.832 43.793 C 359.832 45.536 359.026 46.342 357.146 46.342 L 339.562 46.342 L 339.562 98.427 C 339.562 100.04 338.618 100.976 336.739 100.976 L 322.509 100.976 C 320.63 100.976 319.831 100.04 319.831 98.427 L 319.831 46.342 Z " fill="rgb(130,87,229)"/><path d=" M 419.831 128.361 L 390.566 128.361 C 377.417 128.361 371.779 123.264 371.779 110.64 L 371.779 109.301 C 371.74 108.941 371.782 108.575 371.904 108.235 C 372.025 107.893 372.221 107.583 372.479 107.327 C 372.736 107.072 373.047 106.878 373.39 106.761 C 373.733 106.643 374.097 106.602 374.457 106.645 L 388.154 106.645 C 390.033 106.645 390.969 107.589 390.969 109.33 L 390.969 110 C 390.969 112.687 392.453 113.759 395.405 113.759 L 412.32 113.759 C 420.371 113.759 422.387 111.75 422.387 104.902 L 422.387 83.726 C 419.298 89.768 413.393 92.857 404.125 92.857 L 390.429 92.857 C 376.466 92.857 370.287 86.952 370.287 73.659 L 370.287 32.92 C 370.269 32.568 370.327 32.216 370.458 31.889 C 370.588 31.562 370.788 31.267 371.043 31.024 C 371.298 30.781 371.602 30.596 371.936 30.482 C 372.269 30.368 372.623 30.327 372.973 30.363 L 387.34 30.363 C 389.082 30.363 390.026 31.307 390.026 32.92 L 390.026 68.599 C 390.026 75.577 391.502 76.923 399.826 76.923 L 410.03 76.923 C 418.887 76.923 422.38 73.294 422.38 65.913 L 422.38 32.92 C 422.38 31.307 423.316 30.363 425.066 30.363 L 439.439 30.363 C 439.783 30.33 440.13 30.373 440.455 30.49 C 440.78 30.607 441.075 30.794 441.318 31.039 C 441.562 31.283 441.749 31.579 441.864 31.904 C 441.98 32.229 442.023 32.576 441.989 32.92 L 441.989 107.018 C 441.981 121.102 434.463 128.361 419.831 128.361 Z " fill="rgb(130,87,229)"/></g></g></g></svg>